
        <svg xmlns="http://www.w3.org/2000/svg" xmlns:xlink="http://www.w3.org/1999/xlink" version="1.1" width="2815.219111708265" height="3169.336487922302" viewBox="0 0 2815.219111708265 3169.336487922302">
			
			<g transform="scale(8.466824396115081) translate(10, 10)">
				<defs id="SvgjsDefs1367"/><g id="SvgjsG1368" featureKey="rootContainer" transform="matrix(6.3004009968354175,0,0,6.3004009968354175,0.00004657900802957603,0.02629627555398628)" fill="#fff"><path xmlns="http://www.w3.org/2000/svg" d="M23.11 55.78L1.69 43.41A3.39 3.39 0 0 1 0 40.48V15.75a3.39 3.39 0 0 1 1.69-2.94L23.11.45a3.39 3.39 0 0 1 3.39 0l21.41 12.37a3.39 3.39 0 0 1 1.69 2.94v24.72a3.39 3.39 0 0 1-1.69 2.94L26.5 55.78a3.39 3.39 0 0 1-3.39 0z"/></g><g id="SvgjsG1369" featureKey="symbolFeature-0" transform="matrix(2.0533880581804773,0,0,2.0533880581804773,104.35728952897733,92.01848138549175)" fill="#000000"><g xmlns="http://www.w3.org/2000/svg"><path d="M34,19.8L28.9,7.2l-2.1,4.7l0.3-0.1c0,0.1-4.6,9.6-4.3,9c0-0.1,2.1-6.4,2-6l-5-11.4l-7.9,13.9l-2.2-4.7L1.2,25v2.2l2.9-3.7   v5.3l-1.5,2.7l4.8-4.5v1l0.9-1.6l-1.6-2.9h1l-1.1-3.2l2.1-2.7l2.2,4.3l8-13.3l0,0.2L16.5,14l2.4,2.2l-1.1-2.4l2.7,3.3l-1.2-4.5   l0.5,0.3l0.2-1.3l1.6,5c-3.3,14.1-2.1,9.2-2.4,10.3l1.6-2.4l5.1-5.3l1.4,1.9l0.1-0.2l0.6-1.8l4.6,6.4l1.5-1.8l3.4,6.9l1.1-1   l3.8,4.3v2.1l1.5,1.4h5.6L37.6,18.3L34,19.8z M37.3,26.9l-0.1-1.8l1.7,1.5c0,0,0,0,0,0l0,0c-0.1-0.1-1.5-2.1-1.8-2.4l-0.2-3.3   l3.7,7.3L37.3,26.9z"/><polygon points="28.5,23.5 27,21.6 27,24.3 23.8,26.4 25.4,27.5  "/><path d="M17.1,25.3v3.2l-3.6,3.4h5.4l4.6-5c-0.3,0.2-5.2,3.2-5,3.1v-3.1L17.1,25.3z"/><path d="M0.8,32.8c0.1,0,4.9,0.3,15,3.6c1.3,0.4,14.7,4.9,14.8,4.9c-3.3-1.7-6.2-3.7-14.3-6.4C5.8,31.7,0.9,32.8,0.8,32.8z"/><path d="M20.4,34.7c0,0,0.3-0.4,1-0.8c3.6-2.4,9.1,0.4,12.5,2.1c3.6,1.9,8.8,4.6,13.1,4.5c0.8,0,1.3-0.2,1.3-0.2   c-0.5-0.2-1.5,1-13.6-5.6C22.5,28.7,20.9,34.5,20.4,34.7z"/><path d="M11.6,46.1c-0.3,0.2-0.4,0.3-0.4,0.3S11.3,46.3,11.6,46.1c3.7-1.4,30.4-0.9,27-4.5c0,0-0.1-0.1-0.1-0.1   c-5.2-3-6.1-3.3-12.2-5.9c0.1,0.1,9.3,5.5,10.7,6.4C33,43,15.1,44,11.6,46.1z M37.6,42.6C37.6,42.6,37.6,42.6,37.6,42.6   C37.6,42.6,37.6,42.7,37.6,42.6z"/></g></g><g id="SvgjsG1370" featureKey="nameFeature-0" transform="matrix(0.5652834892040566,0,0,0.5652834892040566,55.42656005048098,200.87232689077263)" fill="#000000"><path d="M30.88 38.64 c0.56 0.08 0.4 1.36 -0.08 1.36 l-10.56 0 c-0.52 0 -0.56 -1.28 -0.12 -1.36 c1.48 -0.28 3.08 -0.8 1.6 -4.24 l-0.44 -1 c-0.4 -0.96 -1.08 -1.04 -2.28 -1.04 l-8.16 0 c-1.2 0 -1.88 0.08 -2.28 1.04 l-0.4 1 c-1.4 3.44 0.12 3.96 2.04 4.24 c0.52 0.08 0.4 1.36 -0.12 1.36 l-8.64 0 c-0.48 0 -0.6 -1.28 -0.12 -1.36 c1.64 -0.28 2.6 -0.84 4.08 -4.24 l6.76 -15.52 c1.56 -3.52 2.04 -5.16 2.04 -6.68 c0 -0.24 2.8 -0.88 2.92 -0.6 l9.76 22.76 c1.44 3.4 2.4 4.04 4 4.28 z M18.72 30.119999999999997 c0.56 0 1.16 -0.08 0.92 -0.64 l-4.68 -11.2 l-4.72 11.2 c-0.24 0.56 0.36 0.64 0.92 0.64 l7.56 0 z M63.806 21.4 c0.52 0 0.52 1.28 0.04 1.44 c-1.16 0.36 -2.36 1.52 -3.52 4.32 l-3.76 9 c-0.8 1.88 -1.16 2.92 -1.4 3.92 l-2.32 0.4 l-5.04 -12.24 l-3.32 7.92 c-0.8 1.88 -1.16 2.92 -1.4 3.92 l-2.32 0.4 l-5.44 -13.32 c-1.24 -3 -2.4 -4 -3.56 -4.32 c-0.48 -0.12 -0.48 -1.44 0.04 -1.44 l7.88 0 c0.56 0 0.56 1.24 0.04 1.44 c-0.84 0.32 -0.92 1.64 0.12 4.32 l2.96 7.6 l3.88 -9.28 c-0.76 -1.72 -1.36 -2.52 -2.64 -2.64 c-0.48 -0.04 -0.52 -1.44 0.04 -1.44 l7.64 0 c0.56 0 0.56 1.2 0.04 1.44 c-0.84 0.4 -0.88 1.64 0.16 4.32 l2.96 7.56 l3.08 -7.56 c1.16 -2.84 1 -4.12 -0.8 -4.32 c-0.44 -0.04 -0.44 -1.44 0.04 -1.44 l6.6 0 z M70.652 40.64 c-2.76 0 -5.48 -1.64 -5.48 -4.88 c0 -2.16 1.28 -3.32 4.16 -4.24 l5.84 -1.88 c1.2 -0.4 1.56 -0.44 1.56 -1.44 l0 -1.6 c0 -2.48 -1.24 -2.76 -2.8 -2.76 c-2.12 0 -4.64 0.56 -6.12 0.72 c-0.36 0.04 -0.6 -0.16 -0.64 -0.44 l-0.08 -0.72 c-0.12 -1.04 5.96 -2.72 9 -2.72 c4.64 0 4.96 3.68 4.96 6.52 l0 8.44 c0 3.36 2.88 2 3.44 2.36 c0.2 0.12 0.28 0.4 0.28 0.56 c0 0.84 -3.4 2.08 -5.08 2.08 c-1.28 0 -2.08 -0.72 -3.04 -2.76 c-3.8 2.32 -4.64 2.76 -6 2.76 z M72.572 37.68 c2.04 0 4.2 -1.44 4.2 -3.48 l0 -3.12 c-0.24 0.16 -0.2 0.2 -0.96 0.44 l-4.04 1.36 c-1.28 0.44 -1.92 1.12 -1.92 2.32 c0 1.52 1.04 2.48 2.72 2.48 z M105.21799999999999 21.4 c0.52 0 0.52 1.28 0.04 1.44 c-1.16 0.36 -2.2 1.44 -3.48 4.28 l-7.88 17.68 c-1.32 2.92 -4.12 3.36 -5.44 3.36 c-2.16 0 -3.04 -1.2 -3.6 -2.8 c-0.64 -1.88 0.16 -1 2.84 -1 c2.76 0 4.6 -0.92 5.8 -3.68 l0.44 -0.96 l-5.52 -12.6 c-1.32 -2.96 -2.36 -4 -3.52 -4.28 c-0.48 -0.12 -0.48 -1.44 0.04 -1.44 l8.08 0 c0.56 0 0.56 1.16 0.04 1.44 c-0.96 0.52 -1.32 1.52 -0.08 4.28 l3.24 7.32 l3.2 -7.28 c1.24 -2.88 0.96 -4.12 -0.84 -4.32 c-0.44 -0.04 -0.44 -1.44 0.04 -1.44 l6.6 0 z M112.14999999999999 40.08 c-0.4 0.04 -0.56 -1.36 -0.24 -1.44 c2.32 -0.6 4.12 -0.96 4.12 -3.92 l0 -17.76 c0 -2.56 -1.64 -3.24 -3.36 -3.68 c-0.32 -0.08 -0.12 -1.4 0.2 -1.36 c2.92 0.32 7.96 0.24 10.4 0.24 c3.64 0 6.28 -0.16 9.56 -0.24 c0.96 0 0.96 0.64 0.76 1.56 l-0.96 3.8 c-0.12 0.56 -1.12 0.56 -1.28 0 c-0.6 -1.96 -1.8 -3.08 -6.8 -3.08 c-2.8 0 -3.72 0.72 -3.72 2.8 l0 6.92 c0 1.04 0.52 1.24 1.32 1.24 l0.88 0 c3.24 0 6.04 -0.32 7.68 -1.8 c0.4 -0.36 1.28 -0.28 0.92 0.52 l-2.28 5.04 c-0.32 0.72 -0.92 0.64 -1.36 0.04 c-0.92 -1.28 -2.96 -1.8 -5.28 -1.8 l-0.56 0 c-0.8 0 -1.32 0.2 -1.32 1.24 l0 6.32 c0 2.96 1.84 3.2 5.12 3.92 c0.36 0.08 0.16 1.48 -0.24 1.44 c-2.88 -0.2 -4.96 -0.24 -7.28 -0.24 s-4.4 0.04 -6.28 0.24 z M135.31599999999997 40 c-0.32 0 -0.6 -1.16 -0.28 -1.2 c1.2 -0.16 2.76 -0.76 2.76 -3.52 l0 -9.12 c0 -1.92 -1.04 -2.36 -2.72 -2.56 c-0.32 -0.04 -0.16 -1.08 0.16 -1.16 l6.32 -1.76 c0.48 -0.12 0.68 0.2 0.68 0.56 c0 1.16 0.08 2.56 0.96 2 c1.48 -0.96 3.68 -2.56 5 -2.56 c0.56 0 2 1.16 1.88 1.8 c-0.36 1.92 -0.8 3.32 -1.4 3.32 c-0.2 0 -1.16 -1.04 -3.28 -1.04 c-1.6 0 -3.32 0.48 -3.32 2.56 l0 7.96 c0 2.76 1.12 2.96 4.76 3.52 c0.28 0.04 0.16 1.2 -0.64 1.2 l-10.88 0 z M161.162 40.64 c-5.56 0 -9.72 -4 -9.72 -9.8 c0 -5.64 4 -10.16 9.88 -10.16 c5.56 0 9.72 4 9.72 9.8 c0 5.64 -3.96 10.16 -9.88 10.16 z M162.322 38.24 c1.96 0 4.36 -1.2 4.36 -5.8 c0 -5.24 -2.84 -9.36 -6.56 -9.36 c-1.92 0 -4.32 1.2 -4.32 5.76 c0 5.28 2.84 9.4 6.52 9.4 z M206.32799999999997 38.8 c0.32 0.04 0.04 1.2 -0.24 1.2 l-8.8 0 c-0.28 0 -0.44 -1.16 -0.24 -1.2 c1.4 -0.28 2.24 -0.92 2.24 -3.04 l0 -7.68 c0 -3.36 -1.68 -4.12 -3.84 -4.12 c-1.48 0 -3.96 0.52 -3.96 1.52 l0 10.28 c0 2.32 1.32 2.92 2.4 3.04 c0.32 0.04 0.04 1.2 -0.24 1.2 l-8.44 0 c-0.28 0 -0.48 -1.16 -0.24 -1.2 c1.4 -0.24 2.24 -0.92 2.24 -3.04 l0 -7.68 c0 -3.36 -1.52 -4.12 -3.8 -4.12 c-1.52 0 -4 0.48 -4 1.52 l0 10.28 c0 2.12 1.08 2.84 2.4 3.04 c0.28 0.04 0.08 1.2 -0.24 1.2 l-8.92 0 c-0.32 0 -0.6 -1.16 -0.28 -1.2 c1.2 -0.16 2.76 -0.72 2.76 -3.04 l0 -9.6 c0 -1.92 -1.04 -2.36 -2.72 -2.56 c-0.32 -0.04 -0.16 -1.08 0.16 -1.16 l6.32 -1.76 c0.48 -0.12 0.68 0.2 0.68 0.6 c0 1.12 0.32 1.56 0.96 1.28 c1.64 -0.72 3.48 -1.88 5.72 -1.88 c2.2 0 3.64 1.04 4.44 2.4 c2.24 -1.28 5.2 -2.4 7.56 -2.4 c3.88 0 5.32 3 5.32 5.6 l0 9.48 c0 2.32 1.56 2.88 2.76 3.04 z M242.82 39 c0.32 0 0.24 1.08 0 1.16 c-2.52 0.84 -6 0.72 -8.4 -2.36 l-6.16 -7.92 c-1.72 -2.24 -3.76 -2.56 -6.56 -2.6 l0 7.76 c0 2.8 1.92 3.28 4.48 3.6 c0.28 0.04 0.08 1.36 -0.24 1.36 l-12.12 0 c-0.32 0 -0.56 -1.32 -0.24 -1.36 c2.04 -0.28 3.32 -1.08 3.32 -3.6 l0 -17.84 c0 -2.64 -1.4 -3.4 -3.32 -3.92 c-0.32 -0.08 -0.12 -1.4 0.24 -1.36 c1.56 0.2 3.32 0.24 4.6 0.24 c2.96 0 5.72 -0.24 7.64 -0.24 c6.04 0 10.08 2.48 10.08 7.4 c0 4.64 -3.76 6.92 -7.12 7.12 l0 0.2 c1.6 0 2.76 0.68 4.52 2.88 l5.96 7.48 c1.24 1.56 2.44 2 3.32 2 z M222.85999999999999 25.439999999999998 c5.96 0 8.24 -1.04 8.24 -5.04 c0 -4.28 -2.72 -6.4 -6.28 -6.4 c-2.36 0 -3.12 0.96 -3.12 3.2 l0 8.24 l1.16 0 z M253.306 40.64 c-5.56 0 -9.72 -4 -9.72 -9.8 c0 -5.64 4 -10.16 9.88 -10.16 c5.56 0 9.72 4 9.72 9.8 c0 5.64 -3.96 10.16 -9.88 10.16 z M254.466 38.24 c1.96 0 4.36 -1.2 4.36 -5.8 c0 -5.24 -2.84 -9.36 -6.56 -9.36 c-1.92 0 -4.32 1.2 -4.32 5.76 c0 5.28 2.84 9.4 6.52 9.4 z M272.072 40.64 c-3.76 0 -4.84 -2.88 -4.84 -5.4 l0 -8.84 c0 -2 -1.56 -2.56 -2.72 -2.72 c-0.28 -0.04 -0.16 -1.04 0.16 -1.12 l6.36 -1.88 c0.48 -0.16 0.84 0.24 0.72 0.72 c-0.4 1.6 -0.24 3.28 -0.24 4.48 l0 8.04 c0 2.48 0.8 3.64 2.92 3.64 c2 0 5.52 -0.52 5.52 -2.88 l0 -8.28 c0 -2 -1.56 -2.56 -2.72 -2.72 c-0.28 -0.04 -0.16 -1.04 0.16 -1.12 l6.36 -1.88 c0.48 -0.16 0.84 0.24 0.72 0.72 c-0.4 1.6 -0.24 3.36 -0.24 4.56 l0 9.68 c0 3.4 2.88 2 3.44 2.36 c0.2 0.12 0.28 0.4 0.28 0.56 c0 0.84 -3.48 2.08 -5.16 2.08 c-1.28 0 -2.2 -2.84 -3.72 -2.08 c-1.6 0.8 -4.44 2.08 -7 2.08 z M295.198 40.64 c-1.64 0 -3.84 -1.52 -3.84 -2.68 l0 -11.56 c0 -2.32 -0.68 -3 -3.48 -3 c-0.44 0 -0.44 -1.24 -0.12 -1.36 c3.04 -1.2 4.52 -2.28 6.68 -4.76 c0.52 -0.6 1.6 0 1.44 0.68 c-0.16 0.72 -0.24 1.32 -0.24 1.8 c0 1.44 0.64 1.88 1.6 1.88 c1.48 0 3.32 -0.4 4.76 -0.52 c0.4 -0.04 0.56 0.32 0.56 0.84 c0 1.04 -0.64 2.52 -1.28 2.48 l-1.56 -0.12 c-2.72 -0.2 -4.12 -0.16 -4.12 1.68 l0 9.44 c0 1.52 0.76 2.08 2.16 2.08 c1.24 0 3.44 -0.24 4.52 -0.36 c0.32 -0.04 0.68 1.16 0.28 1.32 c-2.2 0.88 -4.08 1.44 -7.36 2.16 z M308.08399999999995 16.92 c-0.88 0 -3.04 -1.88 -3.04 -3.04 s2.16 -3.04 3.04 -3.04 s3.04 1.88 3.04 3.04 s-2.16 3.04 -3.04 3.04 z M303.72399999999993 40 c-0.32 0 -0.6 -1.16 -0.28 -1.2 c1.24 -0.16 2.8 -0.72 2.8 -3.04 l0 -8.84 c0 -2.44 -0.64 -3.04 -2.72 -3.32 c-0.32 -0.04 -0.2 -1.08 0.08 -1.16 l7.08 -1.68 c0.4 -0.08 0.6 0.2 0.48 0.72 c-0.28 1.28 -0.64 3.64 -0.64 6.24 l0 8.04 c0 2.32 1.56 2.88 2.8 3.04 c0.28 0.04 0.04 1.2 -0.28 1.2 l-9.32 0 z M314.44999999999993 40 c-0.32 0 -0.6 -1.16 -0.28 -1.2 c1.2 -0.16 2.76 -0.72 2.76 -3.04 l0 -9.6 c0 -1.92 -1.04 -2.36 -2.72 -2.56 c-0.32 -0.04 -0.16 -1.08 0.16 -1.16 l6.32 -1.76 c0.48 -0.12 0.68 0.2 0.68 0.6 c0 1.12 0.32 1.52 0.96 1.28 c1.96 -0.72 3.84 -1.88 6.24 -1.88 c3.92 0 5.28 3 5.28 5.6 l0 9.48 c0 2.32 1.56 2.88 2.76 3.04 c0.32 0.04 0.04 1.2 -0.24 1.2 l-8.92 0 c-0.28 0 -0.48 -1.16 -0.24 -1.2 c1.52 -0.24 2.36 -0.92 2.36 -3.04 l0 -7.68 c0 -3.36 -1.64 -4.12 -4.2 -4.12 c-1.72 0 -4.16 0.48 -4.16 1.52 l0 10.28 c0 2.12 1.08 2.84 2.56 3.04 c0.28 0.04 0.04 1.2 -0.28 1.2 l-9.04 0 z M354.296 36.92 c0.36 -0.08 0.68 1 0.44 1.12 c-1.56 0.76 -4.8 2.6 -5.56 2.6 c-4.92 0 -11.24 -2.32 -11.24 -9.4 c0 -4.76 2.92 -10.56 10.08 -10.56 c6.04 0 6.8 4.32 6.8 6 c0 1.04 -0.32 2.6 -0.72 3.52 l-11.88 0.32 c0.76 4.96 4.8 7.04 7.96 7.04 c0.36 0 2.08 -0.2 4.12 -0.64 z M346.616 23.24 c-3.16 0 -4.4 2.16 -4.52 5.2 l8.68 -0.28 c0.4 -2.16 -0.64 -4.92 -4.16 -4.92 z"/></g><g id="SvgjsG1371" featureKey="sloganFeature-0" transform="matrix(0.9256701463220851,0,0,0.9256701463220851,75.35218672066385,233.41492661826047)" fill="#000000"><path d="M13.98 20.2 c-0.32 0 -0.48 -0.16 -0.7 -0.38 l-9.6 -10.36 l0 8.08 c0 1.34 0.78 1.58 1.82 1.84 c0.16 0.04 0.08 0.62 -0.12 0.62 l-4.48 0 c-0.18 0 -0.28 -0.56 -0.12 -0.62 c0.94 -0.26 1.66 -0.5 1.66 -1.84 l0 -7.92 c0 -1.28 -0.14 -2.12 -0.8 -2.86 c-0.12 -0.16 -0.3 -0.28 -0.3 -0.36 c0 -0.16 0.14 -0.4 0.36 -0.4 l1.4 0 c0.22 0 0.36 0.02 0.5 0.18 l9.42 10.28 l0 -8.02 c0 -1.4 -0.88 -1.58 -1.82 -1.82 c-0.16 -0.04 -0.08 -0.62 0.12 -0.62 l4.48 0 c0.18 0 0.28 0.58 0.12 0.62 c-0.9 0.24 -1.68 0.42 -1.68 1.82 l0 7.94 c0 1.26 0.04 2.7 0.24 3.42 c0.1 0.32 -0.26 0.4 -0.5 0.4 z M22.5 20.32 c-2.76 0 -4.8 -2.04 -4.8 -4.92 c0 -2.76 1.94 -5.06 4.88 -5.06 c2.78 0 4.82 2.04 4.82 4.9 c0 2.8 -1.94 5.08 -4.9 5.08 z M23.060000000000002 19.22 c1.04 0 2.38 -0.64 2.38 -3.04 c0 -2.64 -1.54 -4.76 -3.44 -4.76 c-1.02 0 -2.36 0.66 -2.36 3.06 c0 2.64 1.56 4.74 3.42 4.74 z M32.4 20.32 c-0.76 0 -1.76 -0.76 -1.76 -1.34 l0 -5.84 c0 -1.16 -0.36 -1.5 -1.78 -1.5 c-0.22 0 -0.2 -0.58 -0.06 -0.64 c1.5 -0.62 2.14 -1.1 3.18 -2.32 c0.24 -0.28 0.72 0 0.66 0.32 c-0.08 0.32 -0.12 0.62 -0.12 0.9 c0 0.66 0.32 0.92 0.82 0.92 c0.8 0 1.68 -0.2 2.38 -0.26 c0.18 -0.02 0.26 0.14 0.26 0.4 c0 0.48 -0.3 1.18 -0.62 1.16 l-0.68 -0.04 c-1.54 -0.12 -2.18 -0.06 -2.18 0.82 l0 4.88 c0 0.8 0.54 1.04 1.2 1.04 c0.58 0 1.58 -0.12 2.18 -0.18 c0.16 -0.02 0.3 0.52 0.1 0.6 c-1.1 0.46 -1.88 0.7 -3.58 1.08 z M37.38 20 c-0.16 0 -0.3 -0.52 -0.14 -0.54 c0.6 -0.08 1.4 -0.36 1.4 -1.52 l0 -9.04 c0 -2.14 -0.3 -2.52 -1.46 -2.66 c-0.14 -0.02 -0.12 -0.5 0.02 -0.54 l3.38 -0.74 c0.2 -0.04 0.32 0.1 0.26 0.36 c-0.3 1.28 -0.34 4.06 -0.34 5.32 c0 0.6 0.22 0.78 0.56 0.64 c0.94 -0.38 1.98 -0.94 3.2 -0.94 c1.92 0 2.66 1.5 2.66 2.86 l0 4.74 c0 1.16 0.78 1.44 1.4 1.52 c0.16 0.02 0.02 0.54 -0.12 0.54 l-4.38 0 c-0.16 0 -0.26 -0.52 -0.14 -0.54 c0.74 -0.12 1.38 -0.42 1.38 -1.52 l0 -4.04 c0 -1.68 -1 -2.02 -2.2 -2.02 c-0.96 0 -2.36 0.26 -2.36 0.78 l0 5.28 c0 1.14 0.78 1.44 1.42 1.52 c0.14 0.02 0.02 0.54 -0.14 0.54 l-4.4 0 z M51.9 8.28 c-0.36 0 -1.4 -0.88 -1.4 -1.42 s1.04 -1.4 1.4 -1.4 s1.4 0.86 1.4 1.4 s-1.04 1.42 -1.4 1.42 z M49.82 20 c-0.16 0 -0.3 -0.52 -0.14 -0.54 c0.62 -0.08 1.42 -0.36 1.42 -1.52 l0 -4.56 c0 -1.2 -0.32 -1.52 -1.4 -1.66 c-0.14 -0.02 -0.1 -0.5 0.02 -0.54 l3.32 -0.8 c0.2 -0.06 0.3 0.1 0.24 0.36 c-0.14 0.64 -0.32 1.8 -0.32 3.1 l0 4.1 c0 1.16 0.8 1.44 1.44 1.52 c0.14 0.02 0.02 0.54 -0.14 0.54 l-4.44 0 z M55.88 20 c-0.16 0 -0.3 -0.52 -0.14 -0.54 c0.6 -0.08 1.4 -0.36 1.4 -1.52 l0 -4.92 c0 -0.96 -0.54 -1.18 -1.38 -1.28 c-0.16 -0.02 -0.08 -0.46 0.08 -0.52 l2.9 -0.86 c0.22 -0.08 0.32 0.06 0.32 0.26 c0 0.6 0.16 0.8 0.5 0.66 c0.94 -0.38 1.9 -0.94 3.12 -0.94 c1.92 0 2.66 1.5 2.66 2.86 l0 4.74 c0 1.16 0.78 1.44 1.4 1.52 c0.16 0.02 0.02 0.54 -0.12 0.54 l-4.26 0 c-0.16 0 -0.26 -0.52 -0.14 -0.54 c0.74 -0.12 1.26 -0.42 1.26 -1.52 l0 -4.04 c0 -1.68 -1 -2.02 -2.2 -2.02 c-0.92 0 -2.28 0.26 -2.28 0.78 l0 5.28 c0 1.14 0.66 1.44 1.3 1.52 c0.14 0.02 0.02 0.54 -0.14 0.54 l-4.28 0 z M77.46000000000001 10.54 c1.08 0 1.24 1.88 -0.84 1.88 l-0.32 0 c0.16 0.4 0.24 0.84 0.24 1.28 c0 1.64 -1.08 3.4 -3.92 3.4 c-1.26 0 -2.28 0.72 -2.28 1.28 c0 0.28 0.26 0.56 0.92 0.56 l4.12 0 c1.34 0 2.28 0.34 2.28 1.62 c0 2.14 -2.68 4.02 -5.72 4.02 c-2.7 0 -3.24 -1.48 -3.24 -2.46 c0 -0.32 0.9 -1.06 1.56 -1.66 c-0.78 -0.38 -1.64 -1.38 -1.64 -1.74 c0 -0.38 0.16 -0.58 0.6 -0.86 l1.6 -1.08 c-1.36 -0.56 -2 -1.78 -2 -3.04 c0 -1.64 1.08 -3.4 3.9 -3.4 c1.08 0 1.9 0.26 2.52 0.7 c1.44 0.82 1.1 -0.5 2.22 -0.5 z M73.04 16.18 c1.1 0 1.66 -0.8 1.66 -2 c0 -1.5 -0.9 -2.92 -2.38 -2.92 c-1.08 0 -1.66 0.8 -1.66 2 c0 1.5 0.88 2.92 2.38 2.92 z M74.7 20.6 l-3.92 0 l-0.04 0 c-0.14 0.46 -0.3 1 -0.3 1.34 c0 0.86 0.84 1.64 2.44 1.64 c3.2 0 3.76 -2.98 1.82 -2.98 z M83.54 20.04 c-0.2 0.02 -0.28 -0.6 -0.12 -0.64 c1.18 -0.3 2.08 -0.48 2.08 -1.96 l0 -8.96 c0 -1.34 -0.82 -1.68 -1.7 -1.9 c-0.16 -0.04 -0.08 -0.64 0.12 -0.62 c1.46 0.12 3.6 0.12 5.08 0.12 c1.82 0 3.18 -0.08 4.76 -0.12 c0.46 0 0.46 0.32 0.36 0.76 l-0.5 1.9 c-0.06 0.26 -0.54 0.26 -0.62 0 c-0.28 -0.94 -0.92 -1.6 -3.46 -1.6 c-1.5 0 -1.96 0.36 -1.96 1.46 l0 3.52 c0 0.52 0.26 0.62 0.66 0.62 l0.38 0 c1.78 0 3.12 -0.12 4 -0.96 c0.18 -0.18 0.6 -0.14 0.44 0.24 l-1.18 2.52 c-0.14 0.34 -0.42 0.3 -0.64 0 c-0.48 -0.62 -1.52 -0.86 -2.78 -0.86 l-0.22 0 c-0.4 0 -0.66 0.1 -0.66 0.62 l0 3.26 c0 1.48 0.96 1.64 2.56 1.96 c0.18 0.04 0.08 0.66 -0.12 0.64 c-1.32 -0.12 -2.44 -0.12 -3.48 -0.12 s-2.04 0.02 -3 0.12 z M98.7 20.32 c-1.32 0 -2.72 -0.82 -2.72 -2.44 c0 -0.96 0.5 -1.6 2.12 -2.1 l2.96 -0.96 c0.58 -0.18 0.76 -0.2 0.76 -0.68 l0 -0.94 c0 -1.26 -0.66 -1.38 -1.4 -1.38 c-1.06 0 -2.38 0.26 -3.12 0.34 c-0.16 0.02 -0.28 -0.08 -0.3 -0.2 l-0.04 -0.32 c-0.06 -0.48 2.9 -1.3 4.4 -1.3 c2.2 0 2.36 1.72 2.36 3.22 l0 4.26 c0 1.74 1.5 1.04 1.76 1.22 c0.1 0.06 0.14 0.18 0.14 0.26 c0 0.42 -1.56 1.02 -2.4 1.02 c-0.66 0 -1 -0.4 -1.44 -1.38 c-2.02 1.18 -2.44 1.38 -3.08 1.38 z M99.5 18.96 c1.2 0 2.34 -0.86 2.34 -1.9 l0 -1.58 c-0.14 0.1 -0.18 0.12 -0.48 0.22 l-2.14 0.72 c-0.84 0.3 -1.16 0.6 -1.16 1.22 c0 0.82 0.52 1.32 1.44 1.32 z M106.74 20 c-0.16 0 -0.3 -0.52 -0.14 -0.54 c0.6 -0.08 1.4 -0.38 1.4 -1.76 l0 -4.68 c0 -0.96 -0.54 -1.18 -1.38 -1.28 c-0.16 -0.02 -0.08 -0.46 0.08 -0.52 l2.9 -0.86 c0.22 -0.08 0.32 0.06 0.32 0.24 c0 0.62 0.04 1.34 0.56 1.02 c0.76 -0.48 1.86 -1.28 2.52 -1.28 c0.28 0 0.96 0.58 0.9 0.88 c-0.2 0.92 -0.42 1.56 -0.68 1.56 c-0.1 0 -0.66 -0.5 -1.68 -0.5 c-0.76 0 -1.68 0.22 -1.68 1.3 l0 4.12 c0 1.38 0.58 1.5 2.34 1.76 c0.14 0.02 0.12 0.54 -0.28 0.54 l-5.18 0 z M134 19.36 c0.28 0.04 0.2 0.64 -0.04 0.64 l-4.98 0 c-0.26 0 -0.3 -0.6 -0.06 -0.64 c0.76 -0.12 1.52 -0.42 0.78 -2.16 l-0.3 -0.7 c-0.18 -0.46 -0.62 -0.48 -1.26 -0.48 l-4.16 0 c-0.6 0 -1.04 0.02 -1.22 0.48 l-0.28 0.7 c-0.74 1.78 0.02 2.02 1.02 2.16 c0.24 0.04 0.2 0.64 -0.06 0.64 l-4.22 0 c-0.26 0 -0.32 -0.6 -0.06 -0.64 c0.84 -0.12 1.32 -0.44 2.06 -2.16 l3.38 -7.7 c0.78 -1.76 1.02 -2.64 1.02 -3.4 c0 -0.12 1.42 -0.44 1.48 -0.3 l4.88 11.38 c0.74 1.74 1.22 2.06 2.02 2.18 z M128.14 15 c0.3 0 0.64 -0.04 0.52 -0.3 l-2.56 -6.08 l-2.56 6.08 c-0.12 0.26 0.2 0.3 0.5 0.3 l4.1 0 z M151.10000000000002 10.7 c0.26 0 0.26 0.56 0.02 0.66 c-0.6 0.2 -1.16 0.74 -1.78 2.2 l-1.9 4.52 c-0.42 0.96 -0.56 1.44 -0.68 1.96 l-0.98 0.2 l-2.54 -6.24 l-1.72 4.08 c-0.38 0.92 -0.56 1.46 -0.68 1.96 l-0.96 0.2 l-2.72 -6.66 c-0.64 -1.56 -1.2 -2.04 -1.78 -2.22 c-0.26 -0.08 -0.26 -0.66 0.02 -0.66 l3.68 0 c0.24 0 0.26 0.54 0 0.66 c-0.4 0.18 -0.48 0.82 0.06 2.22 l1.56 4 l2 -4.84 c-0.4 -0.9 -0.72 -1.32 -1.38 -1.38 c-0.22 -0.02 -0.24 -0.66 0.02 -0.66 l3.62 0 c0.26 0 0.26 0.52 0.02 0.66 c-0.42 0.22 -0.46 0.82 0.08 2.22 l1.56 3.96 l1.64 -3.96 c0.62 -1.5 0.36 -2.12 -0.58 -2.22 c-0.22 -0.02 -0.22 -0.66 0.02 -0.66 l3.4 0 z M155.42000000000002 20.32 c-1.32 0 -2.72 -0.82 -2.72 -2.44 c0 -0.96 0.5 -1.6 2.12 -2.1 l2.96 -0.96 c0.58 -0.18 0.76 -0.2 0.76 -0.68 l0 -0.94 c0 -1.26 -0.66 -1.38 -1.4 -1.38 c-1.06 0 -2.38 0.26 -3.12 0.34 c-0.16 0.02 -0.28 -0.08 -0.3 -0.2 l-0.04 -0.32 c-0.06 -0.48 2.9 -1.3 4.4 -1.3 c2.2 0 2.36 1.72 2.36 3.22 l0 4.26 c0 1.74 1.5 1.04 1.76 1.22 c0.1 0.06 0.14 0.18 0.14 0.26 c0 0.42 -1.56 1.02 -2.4 1.02 c-0.66 0 -1 -0.4 -1.44 -1.38 c-2.02 1.18 -2.44 1.38 -3.08 1.38 z M156.22 18.96 c1.2 0 2.34 -0.86 2.34 -1.9 l0 -1.58 c-0.14 0.1 -0.18 0.12 -0.48 0.22 l-2.14 0.72 c-0.84 0.3 -1.16 0.6 -1.16 1.22 c0 0.82 0.52 1.32 1.44 1.32 z M173.36 10.7 c0.24 0 0.26 0.56 0 0.66 c-0.58 0.2 -1.08 0.7 -1.76 2.2 l-3.98 8.94 c-0.66 1.48 -2 1.7 -2.64 1.7 c-1.04 0 -1.42 -0.58 -1.66 -1.36 c-0.28 -0.84 0.08 -0.42 1.32 -0.42 c1.4 0 2.2 -0.52 2.8 -1.88 l0.36 -0.84 l-2.68 -6.14 c-0.68 -1.54 -1.2 -2.04 -1.78 -2.2 c-0.26 -0.08 -0.26 -0.66 0.02 -0.66 l3.76 0 c0.26 0 0.26 0.52 0 0.66 c-0.48 0.24 -0.66 0.78 -0.02 2.2 l1.7 3.88 l1.72 -3.88 c0.64 -1.48 0.48 -2.1 -0.42 -2.2 c-0.22 -0.02 -0.22 -0.66 0.02 -0.66 l3.24 0 z"/></g>
			</g>
		</svg>
	